<?xml version="1.0" standalone="no"?>
<!DOCTYPE svg PUBLIC "-//W3C//DTD SVG 20010904//EN"
 "http://www.w3.org/TR/2001/REC-SVG-20010904/DTD/svg10.dtd">
<svg version="1.0" xmlns="http://www.w3.org/2000/svg"
 width="434.000000pt" height="434.000000pt" viewBox="0 0 434.000000 434.000000"
 preserveAspectRatio="xMidYMid meet">

<g transform="translate(0.000000,434.000000) scale(0.100000,-0.100000)"
fill="#000000" stroke="none">
<path d="M188 4262 c-53 -25 -87 -60 -109 -110 -18 -40 -19 -75 -19 -468 l0
-424 150 0 150 0 0 365 0 365 365 0 365 0 0 145 0 145 -432 0 c-392 -1 -437
-2 -470 -18z"/>
<path d="M3250 4130 l0 -150 365 0 365 0 0 -365 0 -365 145 0 145 0 0 425 c0
371 -2 430 -16 467 -22 57 -59 96 -112 119 -41 18 -74 19 -468 19 l-424 0 0
-150z"/>
<path d="M1945 3564 c-500 -77 -1017 -393 -1488 -909 -160 -175 -377 -453
-377 -483 0 -18 141 -211 246 -337 60 -71 172 -193 249 -271 422 -424 849
-680 1295 -775 151 -33 447 -33 600 0 441 93 862 345 1285 766 191 189 430
477 490 589 l18 34 -38 53 c-250 349 -519 634 -810 859 -495 383 -1001 547
-1470 474z m480 -295 c160 -32 360 -113 523 -210 218 -131 396 -273 612 -489
132 -131 350 -379 350 -398 0 -29 -289 -352 -438 -490 -389 -359 -761 -566
-1117 -622 -100 -16 -295 -13 -400 5 -398 70 -872 369 -1272 803 -115 125
-253 291 -253 304 0 19 217 267 344 393 303 302 589 505 874 621 272 110 513
136 777 83z"/>
<path d="M2025 3120 c-187 -30 -371 -121 -514 -255 -130 -123 -229 -294 -273
-471 -31 -125 -31 -322 0 -448 71 -287 264 -520 535 -646 133 -62 239 -84 397
-84 108 0 153 5 225 23 351 90 620 359 707 707 32 131 31 332 -5 465 -90 341
-349 597 -697 690 -87 23 -283 33 -375 19z m235 -259 l0 -109 53 -12 c199 -47
366 -212 423 -419 l17 -60 86 -3 86 -3 0 -85 0 -85 -86 -3 -86 -3 -17 -62
c-53 -192 -212 -352 -403 -409 l-73 -22 0 -108 0 -108 -90 0 -90 0 0 108 0
108 -72 22 c-192 57 -351 217 -404 409 l-17 62 -86 3 -86 3 0 85 0 85 86 3 86
3 17 60 c57 208 223 371 424 419 l52 12 0 109 0 109 90 0 90 0 0 -109z"/>
<path d="M2017 2550 c-112 -43 -208 -150 -242 -267 -6 -23 -5 -23 89 -23 l96
0 0 -90 0 -90 -96 0 c-94 0 -95 0 -89 -22 29 -99 113 -201 205 -248 105 -52
100 -55 100 49 l0 89 90 0 90 0 0 -90 c0 -88 0 -89 23 -82 102 31 206 118 250
207 49 100 51 96 -55 99 l-93 3 -3 88 -3 87 96 0 c95 0 96 0 90 23 -37 128
-154 245 -282 282 -23 6 -23 5 -23 -79 l0 -86 -90 0 -90 0 0 85 c0 47 -3 85
-7 85 -5 -1 -30 -9 -56 -20z"/>
<path d="M60 660 c0 -469 0 -472 58 -534 15 -15 46 -37 70 -47 41 -18 74 -19
468 -19 l424 0 0 150 0 150 -362 2 -363 3 -3 363 -2 362 -145 0 -145 0 0 -430z"/>
<path d="M3970 715 l0 -365 -365 0 -365 0 0 -145 0 -145 430 0 c469 0 472 0
534 58 15 15 37 46 47 70 18 41 19 74 19 468 l0 424 -150 0 -150 0 0 -365z"/>
</g>
</svg>
