<?xml version="1.0" encoding="utf-8"?>
<!-- Generator: Adobe Illustrator 22.0.1, SVG Export Plug-In . SVG Version: 6.00 Build 0)  -->
<svg version="1.1" id="Layer_1" xmlns="http://www.w3.org/2000/svg" xmlns:xlink="http://www.w3.org/1999/xlink" x="0px" y="0px"
	 viewBox="0 0 1000 1000" style="enable-background:new 0 0 1000 1000;" xml:space="preserve">
<style type="text/css">
	.st0{fill:none;}
	.st1{fill:#FFFFFF;}
</style>
<g>
	<path class="st0" d="M1060.7,1046c-375,0-750,0-1125.4,0c0-375.1,0-750.3,0-1125.4c375,0,750,0,1125.4,0
		C1060.7,296.4,1060.7,671.2,1060.7,1046z M579.6,713c-1.3-47.8,0.4-95.4,8.7-142.6c5.7-32.4,14.1-64.1,30.8-92.8
		c4.7-8,11.2-15.4,18.1-21.6c6.1-5.5,12.3-3.7,16.7,3.2c2.8,4.5,4.9,9.5,7.1,14.3c4.9,10.6,8.7,21.8,14.6,31.8
		c6.9,11.7,17.9,13.9,29.8,7c5.7-3.3,10.5-8,15.9-11.7c11.2-7.8,22-16.3,34-22.6c10.9-5.7,20.1,0.4,21.2,12.6
		c0.6,6.3,0.6,12.8-0.4,19c-8.4,54.7-26.5,106-54.2,154.1c-4.7,8.2-7.5,18.1-9.1,27.5c-1.5,9.2,2.6,13,11.8,12.3
		c6.7-0.5,14-1.6,19.6-4.9c15.5-9.2,31.4-18.3,44.9-30c45.4-39.1,78.2-87.8,103.7-141.6c23.8-50.2,38.2-103.1,44.5-158.2
		c4.8-41.9,5.1-83.6-5.6-124.7c-8-30.9-21-59.5-44.7-81.9c-15.4-14.5-33.4-20.6-54.5-16.9c-19.4,3.4-36.3,12.7-53.4,21.8
		c-21.8,11.5-43.1,24.2-65.6,34.2c-27.2,12.2-53.8,10.7-77.2-10.5c-12.2-11-20.8-24.4-28.1-39c-12.3-24.5-25.4-48.6-43.8-69.3
		c-23.5-26.4-51.7-38.9-87.2-29.2c-23.7,6.5-40.3,22.2-54.1,41.6c-15.1,21.2-23,45.7-32.6,69.6c-15.4,38.4-50.3,63.1-95,50
		c-14.7-4.3-28.9-10.4-42.9-16.7c-20.7-9.4-40.5-20.8-61.5-29.4c-34.7-14.2-59.5-6.8-83.4,22.1c-18.4,22.3-29.4,47.9-35.2,75.8
		c-13.3,63.4-9,126.4,9.4,188c27.3,91.1,76.6,168.8,147.9,232.1c16.1,14.3,33.5,27.2,54.3,34c7.7,2.5,16.5,5.1,22.7-2
		c6.1-7,4.1-15.9,0.6-23.7c-4-8.9-9-17.3-13.8-25.8c-21.5-38.3-35.8-79.3-45.8-121.9c-3.6-15.1-5.4-30.8-6.7-46.3
		c-0.8-9.3,6.5-14.2,15.6-11.8c4.4,1.2,8.9,3,12.8,5.4c9.1,5.7,17.8,12,26.8,17.9c5.5,3.6,10.8,7.7,16.8,10.4
		c10.6,4.7,20.1,1.8,25.9-8.1c4-6.7,6.7-14.1,9.6-21.3c3.1-7.7,5.1-15.9,8.6-23.4c6.4-13.7,22.3-15.7,31.3-3.6
		c4.2,5.6,7.2,13.1,8,20c8,67.1,16.5,134.1,31.3,200.1c13,58.1,29.3,115.2,56.4,168.6c16.4,32.3,36.1,62.2,65.8,84.2
		c11.7,8.7,24.1,16.1,39.4,15.9c9.7-0.1,16.1-4.9,17.4-14.4c1-6.9,0.7-14.2-0.4-21.1c-2.5-14.7-6.2-29.2-9-43.8
		C587.1,821.9,581.4,767.7,579.6,713z"/>
	<path class="st1" d="M1060.7,1046c0-374.8,0-749.6,0-1125.4c-375.4,0-750.4,0-1125.4,0c0.2-0.5,0.5-1.4,0.7-1.4
		c2-0.1,3.9-0.1,5.9-0.1c373.4,0,746.8,0,1120.2,0c0,373.4,0,746.8-0.1,1120.2C1062.1,1041.6,1061.2,1043.8,1060.7,1046z"/>
	<path d="M931.7,244.2c-8-30.9-21-59.5-44.7-81.9c-15.4-14.5-33.4-20.6-54.5-16.9c-19.4,3.4-36.3,12.7-53.4,21.8
		c-21.8,11.5-43.1,24.2-65.6,34.2c-27.2,12.2-53.8,10.7-77.2-10.5c-12.2-11-20.8-24.4-28.1-39c-12.3-24.5-25.4-48.6-43.8-69.3
		c-23.5-26.4-51.7-38.9-87.2-29.2c-23.7,6.5-40.3,22.2-54.1,41.6c-15.1,21.2-23,45.7-32.6,69.6c-15.4,38.4-50.3,63.1-95,50
		c-14.7-4.3-28.9-10.4-42.9-16.7c-20.7-9.4-40.5-20.8-61.5-29.4c-34.7-14.3-59.5-6.8-83.4,22.1c-18.4,22.3-29.4,47.9-35.2,75.8
		c-13.3,63.4-9,126.4,9.5,188c27.3,91.1,76.6,168.8,147.9,232.1c16.1,14.3,33.4,27.2,54.3,34c7.7,2.5,16.5,5.1,22.7-2
		c6.1-7,4.1-15.9,0.6-23.7c-4-8.9-9-17.3-13.8-25.8c-21.5-38.3-35.8-79.3-45.8-121.9c-3.6-15.1-5.4-30.8-6.7-46.3
		c-0.8-9.3,6.5-14.2,15.6-11.8c4.4,1.2,8.9,3,12.8,5.4c9.1,5.7,17.8,12,26.8,17.9c5.5,3.6,10.8,7.7,16.8,10.4
		c10.6,4.7,20,1.8,25.9-8.1c4-6.7,6.7-14.1,9.6-21.3c3.1-7.7,5.1-15.9,8.6-23.4c6.4-13.7,22.3-15.7,31.3-3.5c4.2,5.6,7.2,13.1,8,20
		c8,67.1,16.5,134.1,31.3,200.1c13,58.1,29.3,115.2,56.5,168.6c16.4,32.3,36.1,62.2,65.8,84.2c11.7,8.7,24.1,16.1,39.4,15.9
		c9.6-0.1,16.1-4.9,17.4-14.4c0.9-6.9,0.7-14.2-0.4-21.1c-2.5-14.7-6.2-29.2-9-43.8c-10.3-53.7-16-107.9-17.9-162.6
		c-1.3-47.8,0.5-95.4,8.7-142.6c5.7-32.4,14-64.1,30.8-92.8c4.7-8,11.2-15.4,18.1-21.6c6.1-5.5,12.3-3.7,16.7,3.2
		c2.9,4.5,4.9,9.5,7.1,14.3c4.9,10.6,8.7,21.8,14.6,31.8c6.9,11.7,17.9,13.9,29.8,7c5.7-3.3,10.5-8,15.9-11.8
		c11.2-7.8,22-16.3,34-22.6c10.9-5.7,20.1,0.4,21.2,12.6c0.6,6.3,0.6,12.8-0.4,19c-8.4,54.7-26.5,106-54.2,154.1
		c-4.7,8.2-7.5,18.1-9.1,27.5c-1.5,9.2,2.6,13,11.8,12.3c6.7-0.5,14-1.6,19.6-4.9c15.5-9.2,31.4-18.3,44.9-30
		c45.4-39.1,78.2-87.8,103.7-141.6c23.8-50.2,38.2-103.1,44.5-158.2C942.1,327,942.4,285.3,931.7,244.2z M490.8,173.8
		c-30.8,6.5-57.4-9.6-63.6-38c20.7,6.5,41.7,13.1,63.6,20V173.8z M549,168.6c-10.9,3-22.6,3.2-33.9,4.1c-1.1,0.1-3.4-3-3.6-4.8
		c-0.5-4.6-0.2-9.3-0.2-13.2c21.6-7,42.8-13.9,64.6-21C571.3,148.9,565.9,163.9,549,168.6z"/>
	<path class="st0" d="M575.9,133.7c-4.6,15.2-10,30.2-26.9,34.9c-10.9,3-22.6,3.2-33.9,4.1c-1.1,0.1-3.4-3-3.6-4.8
		c-0.5-4.6-0.2-9.3-0.2-13.2C532.9,147.6,554,140.8,575.9,133.7z"/>
	<path class="st0" d="M490.7,155.8c0,5.6,0,11.8,0,18c-30.8,6.5-57.4-9.6-63.6-38C447.9,142.3,468.8,148.9,490.7,155.8z"/>
</g>
</svg>
